<?xml version="1.0" encoding="UTF-8"?>
<svg version="1.1" xmlns="http://www.w3.org/2000/svg" width="160" height="160">
<path d="M0 0 C4.07547718 0.52106557 5.86650427 2.58466672 8.625 5.5 C11.50277024 8.66693163 11.50277024 8.66693163 15 11 C15 11.66 15 12.32 15 13 C15.66 13 16.32 13 17 13 C17 13.66 17 14.32 17 15 C17.59941406 15.26039062 18.19882813 15.52078125 18.81640625 15.7890625 C21.14938374 17.08284251 22.29777781 18.29468764 23.9375 20.375 C26.3712145 23.34128306 28.8940332 25.71620088 32 28 C36.18130293 26.62165014 38.60631539 24.7587329 41.6875 21.640625 C42.55117187 20.77179688 43.41484375 19.90296875 44.3046875 19.0078125 C45.19414063 18.09773438 46.08359375 17.18765625 47 16.25 C48.33417969 14.90808594 48.33417969 14.90808594 49.6953125 13.5390625 C54.00654125 9.17635639 58.18302573 4.80302595 62 0 C64.1875 0.125 64.1875 0.125 67 1 C68.24440953 2.40814762 69.4811049 3.82730488 70.6171875 5.32421875 C72.10531016 7.12762164 73.69385683 8.51833709 75.5 10 C78.79871412 12.73464828 81.30750298 15.66980631 84 19 C87.45857245 22.63593514 91.11531 25.83804302 95 29 C92.42507648 41.12093881 79.5171229 53.1943291 69.72851562 59.98388672 C52.57251042 70.13124168 24.40748826 68.49274118 5.41668701 64.09191895 C-9.53574251 59.31335977 -21.28741257 45.19918419 -29 32 C-29 29 -29 29 -26.625 26.3125 C-24 24 -24 24 -22 24 C-21.74476562 23.42024414 -21.48953125 22.84048828 -21.2265625 22.24316406 C-19.87415223 19.76984688 -18.36267476 18.10397891 -16.375 16.109375 C-15.66859375 15.40039062 -14.9621875 14.69140625 -14.234375 13.9609375 C-13.49703125 13.23132812 -12.7596875 12.50171875 -12 11.75 C-11.26265625 11.00492188 -10.5253125 10.25984375 -9.765625 9.4921875 C-9.05921875 8.78835937 -8.3528125 8.08453125 -7.625 7.359375 C-6.97789063 6.71452148 -6.33078125 6.06966797 -5.6640625 5.40527344 C-4 4 -4 4 -2 4 C-1.34 2.68 -0.68 1.36 0 0 Z " fill="#88B9C9" transform="translate(47,49)"/>
<path d="M0 0 C7.53406365 2.28304959 12.13035915 8.15643098 17 14 C18.12783056 14.99984979 19.27484229 15.978371 20.4375 16.9375 C23.59784431 19.5458191 26.1707911 22.39552978 28.73828125 25.58203125 C29.96479293 27.1369442 29.96479293 27.1369442 32 28 C31.42045827 31.11979397 30.59744518 32.78382856 28.37963867 35.0402832 C27.83204391 35.60378983 27.28444916 36.16729645 26.72026062 36.74787903 C26.1255043 37.34283676 25.53074799 37.93779449 24.91796875 38.55078125 C24.00208733 39.47808296 24.00208733 39.47808296 23.06770325 40.42411804 C21.77614917 41.72646623 20.48060773 43.0248705 19.18139648 44.31958008 C17.19120504 46.30879677 15.22329947 48.31838722 13.25585938 50.33007812 C11.99869827 51.59244424 10.74027641 52.85355632 9.48046875 54.11328125 C8.59744331 55.02089958 8.59744331 55.02089958 7.69657898 55.94685364 C6.00854492 57.60668945 6.00854492 57.60668945 3 60 C-2.29867529 59.46398144 -6.65207636 54.90591092 -10 51 C-10 50.34 -10 49.68 -10 49 C-10.66 49 -11.32 49 -12 49 C-14.53348876 46.66652351 -16.77436063 44.29333118 -18.875 41.5625 C-21.17599933 38.78776552 -23.66972651 36.72425852 -26.51171875 34.52734375 C-28.2720128 32.72084776 -28.48189754 31.42454549 -29 29 C-28.51748779 28.5882251 -28.03497559 28.1764502 -27.5378418 27.75219727 C-22.42330084 23.33898751 -17.57453959 18.72688144 -12.8125 13.9375 C-11.78479492 12.9155957 -11.78479492 12.9155957 -10.73632812 11.87304688 C-6.93687311 8.06627819 -3.36889001 4.1931233 0 0 Z " fill="#D3D9E6" transform="translate(110,50)"/>
<path d="M0 0 C2.46800047 1.15173355 4.04783565 2.04783565 6 4 C2.14118847 4.94690394 -1.17174341 5.01941503 -5.125 4.6875 C-6.15882812 4.60886719 -7.19265625 4.53023438 -8.2578125 4.44921875 C-11 4 -11 4 -14 2 C-13.07316406 1.93941406 -12.14632812 1.87882812 -11.19140625 1.81640625 C-9.39509766 1.69072266 -9.39509766 1.69072266 -7.5625 1.5625 C-5.77005859 1.44068359 -5.77005859 1.44068359 -3.94140625 1.31640625 C-1.11429756 1.32343886 -1.11429756 1.32343886 0 0 Z " fill="#8BB0C0" transform="translate(106,107)"/>
<path d="M0 0 C0.66 0.33 1.32 0.66 2 1 C1.34 1.66 0.68 2.32 0 3 C-0.45811675 4.97235333 -0.45811675 4.97235333 -0.625 7.125 C-0.810625 9.043125 -0.810625 9.043125 -1 11 C-3 9.6875 -3 9.6875 -5 8 C-5 5 -5 5 -2.5 2.3125 C-1.675 1.549375 -0.85 0.78625 0 0 Z " fill="#7194A1" transform="translate(23,73)"/>
<path d="M0 0 C3.67420866 0.30618405 4.78135513 0.75771784 7.3125 3.5625 C8.1478125 4.7690625 8.1478125 4.7690625 9 6 C4.58763974 6 3.21615077 3.9302707 0 1 C0 0.67 0 0.34 0 0 Z " fill="#97C1CE" transform="translate(98,101)"/>
</svg>
