<svg id="Layer_1" data-name="Layer 1" xmlns="http://www.w3.org/2000/svg" viewBox="0 0 1469.11 720.89"><defs><style>.cls-1{fill:#4f46e5;}.cls-2{fill:#b2cde5;}</style></defs><path class="cls-1" d="M1397.86,1386.54,1038.18,1029,684,676.88a23.43,23.43,0,0,0-32.73-.29L310.15,1004a23.42,23.42,0,0,0-.3,33.51l321.64,319.74A116.18,116.18,0,0,0,713.31,1391h666.07Z" transform="translate(-302.95 -670.07)"/><path class="cls-2" d="M1765.14,1038.84l-321.63,319.73a116,116,0,0,1-64.13,32.39H713.31a115.6,115.6,0,0,1-34.1-5.13l359-356.87L1391,678.24a23.42,23.42,0,0,1,32.73-.29l341.16,327.38A23.42,23.42,0,0,1,1765.14,1038.84Z" transform="translate(-302.95 -670.07)"/></svg>